<?xml version="1.0"?>
<svg xmlns="http://www.w3.org/2000/svg"
xmlns:xlink="http://www.w3.org/1999/xlink" xmlns:cml="http://www.xml-cml.org/schema" width="238.272" height="229.282" x="0" y="0" font-family="sans-serif" stroke="rgb(0,0,0)" stroke-width="1"  stroke-linecap="round">
<rect x="0%" y="0%" width="100%" height="100%" stroke-width="0" fill="rgb(255,255,255)"  />
<line x1="185.7" y1="180.3" x2="159.6" y2="173.3" stroke="rgb(0,0,0)"  stroke-width="1.0"/>
<line x1="159.6" y1="173.3" x2="149.3" y2="134.6" stroke="rgb(0,0,0)"  stroke-width="1.0"/>
<polygon points="149.282032 134.641016 168.108856 115.152796 172.978948 121.499623 " stroke-width="1.000000" fill="rgb(0,0,0)"  stroke="rgb(0,0,0)" />
<line x1="118.0" y1="158.9" x2="116.6" y2="159.7" stroke="rgb(0,0,0)"  stroke-width="1.0"/>
<line x1="120.7" y1="162.3" x2="118.2" y2="163.7" stroke="rgb(0,0,0)"  stroke-width="1.0"/>
<line x1="123.4" y1="165.7" x2="119.8" y2="167.7" stroke="rgb(0,0,0)"  stroke-width="1.0"/>
<line x1="126.1" y1="169.1" x2="121.4" y2="171.8" stroke="rgb(0,0,0)"  stroke-width="1.0"/>
<line x1="128.8" y1="172.5" x2="123.0" y2="175.8" stroke="rgb(0,0,0)"  stroke-width="1.0"/>
<line x1="131.5" y1="175.9" x2="124.6" y2="179.9" stroke="rgb(0,0,0)"  stroke-width="1.0"/>
<line x1="114.6" y1="154.6" x2="101.1" y2="178.0" stroke="rgb(0,0,0)"  stroke-width="1.0"/>
<polygon points="80.000000 134.641016 70.064102 159.850497 63.135898 155.850497 " stroke-width="1.000000" fill="rgb(0,0,0)"  stroke="rgb(0,0,0)" />
<line x1="80.0" y1="134.6" x2="53.0" y2="134.6" stroke="rgb(0,0,0)"  stroke-width="1.0"/>
<line x1="74.6" y1="95.4" x2="74.6" y2="93.8" stroke="rgb(0,0,0)"  stroke-width="1.0"/>
<line x1="70.4" y1="96.1" x2="70.4" y2="93.2" stroke="rgb(0,0,0)"  stroke-width="1.0"/>
<line x1="66.1" y1="96.7" x2="66.1" y2="92.6" stroke="rgb(0,0,0)"  stroke-width="1.0"/>
<line x1="61.8" y1="97.4" x2="61.8" y2="91.9" stroke="rgb(0,0,0)"  stroke-width="1.0"/>
<line x1="57.5" y1="98.0" x2="57.5" y2="91.3" stroke="rgb(0,0,0)"  stroke-width="1.0"/>
<line x1="53.2" y1="98.6" x2="53.2" y2="90.6" stroke="rgb(0,0,0)"  stroke-width="1.0"/>
<line x1="80.0" y1="94.6" x2="66.5" y2="71.3" stroke="rgb(0,0,0)"  stroke-width="1.0"/>
<line x1="111.3" y1="70.4" x2="112.7" y2="69.6" stroke="rgb(0,0,0)"  stroke-width="1.0"/>
<line x1="108.6" y1="67.0" x2="111.1" y2="65.6" stroke="rgb(0,0,0)"  stroke-width="1.0"/>
<line x1="105.9" y1="63.6" x2="109.5" y2="61.5" stroke="rgb(0,0,0)"  stroke-width="1.0"/>
<line x1="103.2" y1="60.2" x2="107.9" y2="57.5" stroke="rgb(0,0,0)"  stroke-width="1.0"/>
<line x1="100.5" y1="56.8" x2="106.3" y2="53.5" stroke="rgb(0,0,0)"  stroke-width="1.0"/>
<line x1="97.8" y1="53.4" x2="104.7" y2="49.4" stroke="rgb(0,0,0)"  stroke-width="1.0"/>
<line x1="114.6" y1="74.6" x2="128.1" y2="51.3" stroke="rgb(0,0,0)"  stroke-width="1.0"/>
<line x1="149.3" y1="134.6" x2="114.6" y2="154.6" stroke="rgb(0,0,0)"  stroke-width="1.0"/>
<line x1="114.6" y1="154.6" x2="80.0" y2="134.6" stroke="rgb(0,0,0)"  stroke-width="1.0"/>
<line x1="80.0" y1="134.6" x2="80.0" y2="94.6" stroke="rgb(0,0,0)"  stroke-width="1.0"/>
<line x1="80.0" y1="94.6" x2="114.6" y2="74.6" stroke="rgb(0,0,0)"  stroke-width="1.0"/>
<line x1="114.6" y1="74.6" x2="138.0" y2="88.1" stroke="rgb(0,0,0)"  stroke-width="1.0"/>
<line x1="149.3" y1="107.6" x2="149.3" y2="134.6" stroke="rgb(0,0,0)"  stroke-width="1.0"/>
<text x="192.271827" y="191.630811" fill="rgb(255,12,12)"  stroke="rgb(255,12,12)" stroke-width="1" font-size="16" >OH</text>
<text x="175.016166" y="118.290559" fill="rgb(191,191,191)"  stroke="rgb(191,191,191)" stroke-width="1" font-size="16" >H</text>
<text x="143.282032" y="102.641016" fill="rgb(255,12,12)"  stroke="rgb(255,12,12)" stroke-width="1" font-size="16" >O</text>
<text x="128.641016" y="197.282032" fill="rgb(191,191,191)"  stroke="rgb(191,191,191)" stroke-width="1" font-size="16" >H</text>
<text x="76.641016" y="197.282032" fill="rgb(255,12,12)"  stroke="rgb(255,12,12)" stroke-width="1" font-size="16" >HO</text>
<text x="54.000000" y="177.282032" fill="rgb(191,191,191)"  stroke="rgb(191,191,191)" stroke-width="1" font-size="16" >H</text>
<text x="22.000000" y="142.641016" fill="rgb(255,12,12)"  stroke="rgb(255,12,12)" stroke-width="1" font-size="16" >HO</text>
<text x="34.000000" y="102.641016" fill="rgb(191,191,191)"  stroke="rgb(191,191,191)" stroke-width="1" font-size="16" >H</text>
<text x="42.000000" y="68.000000" fill="rgb(255,12,12)"  stroke="rgb(255,12,12)" stroke-width="1" font-size="16" >HO</text>
<text x="88.641016" y="48.000000" fill="rgb(191,191,191)"  stroke="rgb(191,191,191)" stroke-width="1" font-size="16" >H</text>
<text x="128.641016" y="48.000000" fill="rgb(255,12,12)"  stroke="rgb(255,12,12)" stroke-width="1" font-size="16" >OH</text>
<text font-size="18.000000" fill ="black" font-family="sans-serif"
x="10.000000" y="20.000000" ></text>
<title> - OBDepict</title>
<cml:molecule>
 <cml:atomArray>
  <cml:atom id="a1" elementType="O" x2="2.090770" y2="-2.724745"/>
  <cml:atom id="a2" elementType="C" x2="1.124844" y2="-2.465926"/>
  <cml:atom id="a3" elementType="C" x2="0.866025" y2="-1.500000">
   <cml:atomParity atomRefs4="a2 a4 a5 a6">1</cml:atomParity>
  </cml:atom>
  <cml:atom id="a4" elementType="H" x2="1.659379" y2="-0.891239"/>
  <cml:atom id="a5" elementType="O" x2="0.866025" y2="-0.500000"/>
  <cml:atom id="a6" elementType="C" x2="0.000000" y2="-2.000000">
   <cml:atomParity atomRefs4="a3 a7 a8 a9">1</cml:atomParity>
  </cml:atom>
  <cml:atom id="a7" elementType="H" x2="0.500000" y2="-2.866025"/>
  <cml:atom id="a8" elementType="O" x2="-0.500000" y2="-2.866025"/>
  <cml:atom id="a9" elementType="C" x2="-0.866025" y2="-1.500000">
   <cml:atomParity atomRefs4="a6 a10 a12 a11">1</cml:atomParity>
  </cml:atom>
  <cml:atom id="a10" elementType="H" x2="-1.366025" y2="-2.366025"/>
  <cml:atom id="a11" elementType="O" x2="-1.866025" y2="-1.500000"/>
  <cml:atom id="a12" elementType="C" x2="-0.866025" y2="-0.500000">
   <cml:atomParity atomRefs4="a9 a13 a14 a15">1</cml:atomParity>
  </cml:atom>
  <cml:atom id="a13" elementType="H" x2="-1.866025" y2="-0.500000"/>
  <cml:atom id="a14" elementType="O" x2="-1.366025" y2="0.366025"/>
  <cml:atom id="a15" elementType="C" x2="-0.000000" y2="-0.000000">
   <cml:atomParity atomRefs4="a12 a16 a17 a5">1</cml:atomParity>
  </cml:atom>
  <cml:atom id="a16" elementType="H" x2="-0.500000" y2="0.866025"/>
  <cml:atom id="a17" elementType="O" x2="0.500000" y2="0.866025"/>
 </cml:atomArray>
 <cml:bondArray>
  <cml:bond atomRefs2="a1 a2" order="1"/>
  <cml:bond atomRefs2="a2 a3" order="1"/>
  <cml:bond atomRefs2="a3 a4" order="1"/>
  <cml:bond atomRefs2="a3 a5" order="1"/>
  <cml:bond atomRefs2="a3 a6" order="1"/>
  <cml:bond atomRefs2="a6 a7" order="1"/>
  <cml:bond atomRefs2="a6 a8" order="1"/>
  <cml:bond atomRefs2="a6 a9" order="1"/>
  <cml:bond atomRefs2="a9 a10" order="1"/>
  <cml:bond atomRefs2="a9 a11" order="1"/>
  <cml:bond atomRefs2="a9 a12" order="1"/>
  <cml:bond atomRefs2="a12 a13" order="1"/>
  <cml:bond atomRefs2="a12 a14" order="1"/>
  <cml:bond atomRefs2="a12 a15" order="1"/>
  <cml:bond atomRefs2="a15 a16" order="1"/>
  <cml:bond atomRefs2="a15 a17" order="1"/>
  <cml:bond atomRefs2="a5 a15" order="1"/>
 </cml:bondArray>
</cml:molecule>
</svg>
