<?xml version="1.0"?>
<svg xmlns="http://www.w3.org/2000/svg"
xmlns:xlink="http://www.w3.org/1999/xlink" xmlns:cml="http://www.xml-cml.org/schema" width="599.615" height="180" x="0" y="0" font-family="sans-serif" stroke="rgb(0,0,0)" stroke-width="1"  stroke-linecap="round">
<rect x="0%" y="0%" width="100%" height="100%" stroke-width="0" fill="rgb(255,255,255)"  />
<line x1="559.6" y1="73.0" x2="559.6" y2="100.0" stroke="rgb(0,0,0)"  stroke-width="1.0"/>
<line x1="559.6" y1="100.0" x2="525.0" y2="120.0" stroke="rgb(0,0,0)"  stroke-width="1.0"/>
<line x1="525.0" y1="120.0" x2="490.3" y2="100.0" stroke="rgb(0,0,0)"  stroke-width="1.0"/>
<line x1="485.0" y1="100.8" x2="485.0" y2="99.2" stroke="rgb(0,0,0)"  stroke-width="1.0"/>
<line x1="480.7" y1="101.4" x2="480.7" y2="98.6" stroke="rgb(0,0,0)"  stroke-width="1.0"/>
<line x1="476.4" y1="102.1" x2="476.4" y2="97.9" stroke="rgb(0,0,0)"  stroke-width="1.0"/>
<line x1="472.1" y1="102.7" x2="472.1" y2="97.3" stroke="rgb(0,0,0)"  stroke-width="1.0"/>
<line x1="467.8" y1="103.4" x2="467.8" y2="96.6" stroke="rgb(0,0,0)"  stroke-width="1.0"/>
<line x1="463.5" y1="104.0" x2="463.5" y2="96.0" stroke="rgb(0,0,0)"  stroke-width="1.0"/>
<line x1="490.3" y1="100.0" x2="476.8" y2="123.4" stroke="rgb(0,0,0)"  stroke-width="1.0"/>
<line x1="490.3" y1="100.0" x2="490.3" y2="60.0" stroke="rgb(0,0,0)"  stroke-width="1.0"/>
<line x1="490.3" y1="60.0" x2="455.7" y2="40.0" stroke="rgb(0,0,0)"  stroke-width="1.0"/>
<line x1="455.7" y1="40.0" x2="421.1" y2="60.0" stroke="rgb(0,0,0)"  stroke-width="1.0"/>
<line x1="419.6" y1="62.6" x2="384.9" y2="42.6" stroke="rgb(0,0,0)"  stroke-width="1.0"/>
<line x1="422.6" y1="57.4" x2="387.9" y2="37.4" stroke="rgb(0,0,0)"  stroke-width="1.0"/>
<line x1="386.4" y1="40.0" x2="351.8" y2="60.0" stroke="rgb(0,0,0)"  stroke-width="1.0"/>
<line x1="350.3" y1="62.6" x2="315.6" y2="42.6" stroke="rgb(0,0,0)"  stroke-width="1.0"/>
<line x1="353.3" y1="57.4" x2="318.6" y2="37.4" stroke="rgb(0,0,0)"  stroke-width="1.0"/>
<line x1="317.1" y1="40.0" x2="282.5" y2="60.0" stroke="rgb(0,0,0)"  stroke-width="1.0"/>
<line x1="282.5" y1="60.0" x2="247.8" y2="80.0" stroke="rgb(0,0,0)"  stroke-width="1.0"/>
<line x1="284.6" y1="63.6" x2="249.9" y2="83.6" stroke="rgb(0,0,0)"  stroke-width="1.0"/>
<line x1="280.4" y1="56.4" x2="245.7" y2="76.4" stroke="rgb(0,0,0)"  stroke-width="1.0"/>
<line x1="247.8" y1="80.0" x2="213.2" y2="100.0" stroke="rgb(0,0,0)"  stroke-width="1.0"/>
<line x1="213.2" y1="100.0" x2="178.6" y2="120.0" stroke="rgb(0,0,0)"  stroke-width="1.0"/>
<line x1="215.3" y1="103.6" x2="180.7" y2="123.6" stroke="rgb(0,0,0)"  stroke-width="1.0"/>
<line x1="211.1" y1="96.4" x2="176.5" y2="116.4" stroke="rgb(0,0,0)"  stroke-width="1.0"/>
<line x1="178.6" y1="120.0" x2="143.9" y2="140.0" stroke="rgb(0,0,0)"  stroke-width="1.0"/>
<line x1="142.4" y1="142.6" x2="107.8" y2="122.6" stroke="rgb(0,0,0)"  stroke-width="1.0"/>
<line x1="145.4" y1="137.4" x2="110.8" y2="117.4" stroke="rgb(0,0,0)"  stroke-width="1.0"/>
<line x1="109.3" y1="120.0" x2="74.6" y2="140.0" stroke="rgb(0,0,0)"  stroke-width="1.0"/>
<line x1="74.6" y1="140.0" x2="51.3" y2="126.5" stroke="rgb(0,0,0)"  stroke-width="1.0"/>
<text x="555.615242" y="68.000000" fill="rgb(102,102,102)"  stroke="rgb(102,102,102)" stroke-width="1" font-size="16" >CH</text>
<text x="579.615242" y="71.680000" fill="rgb(102,102,102)"  stroke="rgb(102,102,102)" stroke-width="1" font-size="13" >3</text>
<text x="444.333210" y="108.000000" fill="rgb(191,191,191)"  stroke="rgb(191,191,191)" stroke-width="1" font-size="16" >H</text>
<text x="452.333210" y="142.641016" fill="rgb(255,12,12)"  stroke="rgb(255,12,12)" stroke-width="1" font-size="16" >HO</text>
<text x="22.000000" y="128.000000" fill="rgb(255,12,12)"  stroke="rgb(255,12,12)" stroke-width="1" font-size="16" >HO</text>
<text font-size="18.000000" fill ="black" font-family="sans-serif"
x="10.000000" y="20.000000" ></text>
<title> - OBDepict</title>
<cml:molecule>
 <cml:atomArray>
  <cml:atom id="a1" elementType="C" x2="12.990381" y2="1.500000"/>
  <cml:atom id="a2" elementType="C" x2="12.990381" y2="0.500000"/>
  <cml:atom id="a3" elementType="C" x2="12.124356" y2="-0.000000"/>
  <cml:atom id="a4" elementType="C" x2="11.258330" y2="0.500000">
   <cml:atomParity atomRefs4="a3 a5 a6 a7">1</cml:atomParity>
  </cml:atom>
  <cml:atom id="a5" elementType="H" x2="10.258330" y2="0.500000"/>
  <cml:atom id="a6" elementType="O" x2="10.758330" y2="-0.366025"/>
  <cml:atom id="a7" elementType="C" x2="11.258330" y2="1.500000"/>
  <cml:atom id="a8" elementType="C" x2="10.392305" y2="2.000000"/>
  <cml:atom id="a9" elementType="C" x2="9.526279" y2="1.500000"/>
  <cml:atom id="a10" elementType="C" x2="8.660254" y2="2.000000"/>
  <cml:atom id="a11" elementType="C" x2="7.794229" y2="1.500000"/>
  <cml:atom id="a12" elementType="C" x2="6.928203" y2="2.000000"/>
  <cml:atom id="a13" elementType="C" x2="6.062178" y2="1.500000"/>
  <cml:atom id="a14" elementType="C" x2="5.196152" y2="1.000000"/>
  <cml:atom id="a15" elementType="C" x2="4.330127" y2="0.500000"/>
  <cml:atom id="a16" elementType="C" x2="3.464102" y2="0.000000"/>
  <cml:atom id="a17" elementType="C" x2="2.598076" y2="-0.500000"/>
  <cml:atom id="a18" elementType="C" x2="1.732051" y2="-0.000000"/>
  <cml:atom id="a19" elementType="C" x2="0.866025" y2="-0.500000"/>
  <cml:atom id="a20" elementType="O" x2="0.000000" y2="-0.000000"/>
 </cml:atomArray>
 <cml:bondArray>
  <cml:bond atomRefs2="a1 a2" order="1"/>
  <cml:bond atomRefs2="a2 a3" order="1"/>
  <cml:bond atomRefs2="a3 a4" order="1"/>
  <cml:bond atomRefs2="a4 a5" order="1"/>
  <cml:bond atomRefs2="a4 a6" order="1"/>
  <cml:bond atomRefs2="a4 a7" order="1"/>
  <cml:bond atomRefs2="a7 a8" order="1"/>
  <cml:bond atomRefs2="a8 a9" order="1"/>
  <cml:bond atomRefs2="a9 a10" order="2">
   <cml:bondStereo atomRefs4="a8 a9 a10 a11">T</cml:bondStereo>
  </cml:bond>
  <cml:bond atomRefs2="a10 a11" order="1"/>
  <cml:bond atomRefs2="a11 a12" order="2">
   <cml:bondStereo atomRefs4="a10 a11 a12 a13">T</cml:bondStereo>
  </cml:bond>
  <cml:bond atomRefs2="a12 a13" order="1"/>
  <cml:bond atomRefs2="a13 a14" order="3"/>
  <cml:bond atomRefs2="a14 a15" order="1"/>
  <cml:bond atomRefs2="a15 a16" order="3"/>
  <cml:bond atomRefs2="a16 a17" order="1"/>
  <cml:bond atomRefs2="a17 a18" order="2">
   <cml:bondStereo atomRefs4="a16 a17 a18 a19">T</cml:bondStereo>
  </cml:bond>
  <cml:bond atomRefs2="a18 a19" order="1"/>
  <cml:bond atomRefs2="a19 a20" order="1"/>
 </cml:bondArray>
</cml:molecule>
</svg>
