<?xml version="1.0" encoding="UTF-8" standalone="no"?>
<!-- Created with Inkscape (http://www.inkscape.org/) -->

<svg
   xmlns:dc="http://purl.org/dc/elements/1.1/"
   xmlns:cc="http://creativecommons.org/ns#"
   xmlns:rdf="http://www.w3.org/1999/02/22-rdf-syntax-ns#"
   xmlns:svg="http://www.w3.org/2000/svg"
   xmlns="http://www.w3.org/2000/svg"
   xmlns:xlink="http://www.w3.org/1999/xlink"
   xmlns:sodipodi="http://sodipodi.sourceforge.net/DTD/sodipodi-0.dtd"
   xmlns:inkscape="http://www.inkscape.org/namespaces/inkscape"
   width="6in"
   height="4in"
   viewBox="0 100 152.4 201.6"
   version="1.1"
   id="svg8"
   inkscape:version="0.92.2 (5c3e80d, 2017-08-06)"
   sodipodi:docname="example.svg">
  <defs
     id="defs2">
    <inkscape:perspective
       sodipodi:type="inkscape:persp3d"
       inkscape:vp_x="0 : 100.8 : 1"
       inkscape:vp_y="0 : 1000 : 0"
       inkscape:vp_z="152.4 : 100.8 : 1"
       inkscape:persp3d-origin="76.2 : 67.2 : 1"
       id="perspective15" />
  </defs>
  <sodipodi:namedview
     id="base"
     pagecolor="#ffffff"
     bordercolor="#666666"
     borderopacity="1.0"
     inkscape:pageopacity="0.0"
     inkscape:pageshadow="2"
     inkscape:zoom="1"
     inkscape:cx="400"
     inkscape:cy="215.4"
     inkscape:document-units="in"
     inkscape:current-layer="layer1"
     showgrid="false"
     units="in"
     inkscape:window-width="1080"
     inkscape:window-height="675"
     inkscape:window-x="0"
     inkscape:window-y="56"
     inkscape:window-maximized="0"
     inkscape:lockguides="true"
     fit-margin-top="0"
     fit-margin-left="0"
     fit-margin-right="0"
     fit-margin-bottom="0" />
  <metadata
     id="metadata5">
    <rdf:RDF>
      <cc:Work
         rdf:about="">
        <dc:format>image/svg+xml</dc:format>
        <dc:type
           rdf:resource="http://purl.org/dc/dcmitype/StillImage" />
        <dc:title />
      </cc:Work>
    </rdf:RDF>
  </metadata>
  <g
     inkscape:label="Layer 1"
     inkscape:groupmode="layer"
     id="layer1"
     transform="translate(0,0)">
    <text
       xml:space="preserve"
       style="font-style:normal;font-weight:normal;font-size:17.99012184px;line-height:125%;font-family:Sans;letter-spacing:0px;word-spacing:0px;fill:#000000;fill-opacity:1;stroke:none;stroke-width:0.44975302px;stroke-linecap:butt;stroke-linejoin:miter;stroke-opacity:1"
       x="-64.790283"
       y="114.9012"
       id="text9"
       transform="scale(0.85667248,1.1673073)"><tspan
         sodipodi:role="line"
         id="tspan7"
         x="-64.790283"
         y="114.9012"
         style="stroke-width:0.44975302px">An example svg drawn in inkscape</tspan></text>
    <path
       sodipodi:type="spiral"
       style="fill:none;fill-rule:evenodd;stroke:#000000;stroke-width:0.52499998px;stroke-linecap:butt;stroke-linejoin:miter;stroke-opacity:1"
       id="path11"
       sodipodi:cx="-39.825001"
       sodipodi:cy="166.675"
       sodipodi:expansion="1"
       sodipodi:revolution="3"
       sodipodi:radius="25.682108"
       sodipodi:argument="-18.136496"
       sodipodi:t0="0"
       d="m -39.825001,166.675 c 0.973939,0.84233 -0.65493,1.72843 -1.399999,1.61875 -2.019092,-0.2972 -2.522974,-2.81931 -1.837502,-4.41875 1.226148,-2.86101 4.905704,-3.45241 7.437499,-2.05625 3.715511,2.04892 4.406902,7.0195 2.275005,10.45625 -2.841482,4.58065 -9.142901,5.37192 -13.474999,2.49376 -5.451504,-3.62187 -6.342344,-11.27086 -2.712508,-16.49375 4.396217,-6.32563 13.401365,-7.3159 19.512499,-2.93126 7.201759,5.16715 8.291422,15.53347 3.150011,22.53125 -5.935962,8.07921 -17.666638,9.26825 -25.549999,3.36876 -8.957575,-6.70338 -10.246,-19.80055 -3.587514,-28.56875 7.469815,-9.83659 21.935015,-11.22441 31.587499,-3.80627 10.716086,8.23555 12.203325,24.06989 4.025017,34.60625" />
    <path
       sodipodi:type="star"
       style="fill:#0000ff;stroke:#ff0000;stroke-width:0.52499998"
       id="path13"
       sodipodi:sides="5"
       sodipodi:cx="69.375"
       sodipodi:cy="207.10001"
       sodipodi:r1="22.286234"
       sodipodi:r2="11.143117"
       sodipodi:arg1="1.3086765"
       sodipodi:arg2="1.936995"
       inkscape:flatsided="false"
       inkscape:rounded="0"
       inkscape:randomized="0"
       d="m 75.15,228.62501 -9.765002,-11.12073 -14.696916,1.73967 7.558886,-12.72356 -6.196118,-13.44001 14.43665,3.25713 10.867504,-10.04605 1.363455,14.73658 12.912605,7.23121 -13.593989,5.85057 z"
       inkscape:transform-center-x="-1.7845731"
       inkscape:transform-center-y="0.35822468" />
    <g
       sodipodi:type="inkscape:box3d"
       id="g17"
       style="fill:#0000ff;stroke:#ff0000"
       inkscape:perspectiveID="#perspective15"
       inkscape:corner0="3.4307693 : -0.094729412 : 0 : 1"
       inkscape:corner7="1.4201681 : -0.16644924 : 0.25 : 1">
      <path
         sodipodi:type="inkscape:box3dside"
         id="path19"
         style="fill:#353564;fill-rule:evenodd;stroke:none;stroke-width:1px;stroke-linecap:butt;stroke-linejoin:round;stroke-opacity:1"
         inkscape:box3dsidetype="6"
         d="M -40.875001,229.76323 V 245.95 l 14.328575,-2.41146 v -15.32223 z"
         points="-40.875001,245.95 -26.546426,243.53854 -26.546426,228.21631 -40.875001,229.76323 " />
      <path
         sodipodi:type="inkscape:box3dside"
         id="path27"
         style="fill:#afafde;fill-rule:evenodd;stroke:none;stroke-width:1px;stroke-linecap:butt;stroke-linejoin:round;stroke-opacity:1"
         inkscape:box3dsidetype="13"
         d="m -40.875001,245.95 28.35,37.50923 22.4634736,-7.73914 -36.4848986,-32.18155 z"
         points="-12.525001,283.45923 9.9384726,275.72009 -26.546426,243.53854 -40.875001,245.95 " />
      <path
         sodipodi:type="inkscape:box3dside"
         id="path29"
         style="fill:#e9e9ff;fill-rule:evenodd;stroke:none;stroke-width:1px;stroke-linecap:butt;stroke-linejoin:round;stroke-opacity:1"
         inkscape:box3dsidetype="11"
         d="m -26.546426,228.21631 36.4848986,20.64411 v 26.85967 L -26.546426,243.53854 Z"
         points="9.9384726,248.86042 9.9384726,275.72009 -26.546426,243.53854 -26.546426,228.21631 " />
      <path
         sodipodi:type="inkscape:box3dside"
         id="path21"
         style="fill:#4d4d9f;fill-rule:evenodd;stroke:none;stroke-width:1px;stroke-linecap:butt;stroke-linejoin:round;stroke-opacity:1"
         inkscape:box3dsidetype="5"
         d="m -40.875001,229.76323 28.35,24.06177 22.4634736,-4.96458 -36.4848986,-20.64411 z"
         points="-12.525001,253.825 9.9384726,248.86042 -26.546426,228.21631 -40.875001,229.76323 " />
      <path
         sodipodi:type="inkscape:box3dside"
         id="path25"
         style="fill:#d7d7ff;fill-rule:evenodd;stroke:none;stroke-width:1px;stroke-linecap:butt;stroke-linejoin:round;stroke-opacity:1"
         inkscape:box3dsidetype="14"
         d="m -12.525001,253.825 v 29.63423 l 22.4634736,-7.73914 v -26.85967 z"
         points="-12.525001,283.45923 9.9384726,275.72009 9.9384726,248.86042 -12.525001,253.825 " />
      <path
         sodipodi:type="inkscape:box3dside"
         id="path23"
         style="fill:#8686bf;fill-rule:evenodd;stroke:none;stroke-width:1px;stroke-linecap:butt;stroke-linejoin:round;stroke-opacity:1"
         inkscape:box3dsidetype="3"
         d="m -40.875001,229.76323 28.35,24.06177 v 29.63423 l -28.35,-37.50923 z"
         points="-12.525001,253.825 -12.525001,283.45923 -40.875001,245.95 -40.875001,229.76323 " />
    </g>
    <rect
       style="fill:#ffff00;stroke:#ff0000;stroke-width:0.52499998"
       id="rect31"
       width="40.950001"
       height="38.849998"
       x="154.425"
       y="157.22501" />
    <use
       id="use33"
       inkscape:spray-origin="#rect31"
       xlink:href="#rect31"
       x="0"
       y="0"
       width="100%"
       height="100%"
       transform="translate(5.4843997,76.843595)" />
    <use
       id="use35"
       inkscape:spray-origin="#rect31"
       xlink:href="#rect31"
       x="0"
       y="0"
       width="100%"
       height="100%"
       transform="translate(25.454102,74.412805)" />
    <use
       id="use37"
       inkscape:spray-origin="#rect31"
       xlink:href="#rect31"
       x="0"
       y="0"
       width="100%"
       height="100%"
       transform="translate(27.509096,49.95756)" />
    <use
       id="use39"
       inkscape:spray-origin="#rect31"
       xlink:href="#rect31"
       x="0"
       y="0"
       width="100%"
       height="100%"
       transform="translate(25.163035,58.412244)" />
    <use
       id="use41"
       inkscape:spray-origin="#rect31"
       xlink:href="#rect31"
       x="0"
       y="0"
       width="100%"
       height="100%"
       transform="translate(3.6233997,54.390733)" />
    <use
       id="use43"
       inkscape:spray-origin="#rect31"
       xlink:href="#rect31"
       x="0"
       y="0"
       width="100%"
       height="100%"
       transform="translate(26.787089,55.894802)" />
    <use
       id="use45"
       inkscape:spray-origin="#rect31"
       xlink:href="#rect31"
       x="0"
       y="0"
       width="100%"
       height="100%"
       transform="translate(16.391495,67.279072)" />
    <use
       id="use47"
       inkscape:spray-origin="#rect31"
       xlink:href="#rect31"
       x="0"
       y="0"
       width="100%"
       height="100%"
       transform="translate(5.4625229,73.075904)" />
    <use
       id="use49"
       inkscape:spray-origin="#rect31"
       xlink:href="#rect31"
       x="0"
       y="0"
       width="100%"
       height="100%"
       transform="translate(-12.791466,70.033445)" />
    <use
       id="use51"
       inkscape:spray-origin="#rect31"
       xlink:href="#rect31"
       x="0"
       y="0"
       width="100%"
       height="100%"
       transform="translate(16.111418,61.922228)" />
    <use
       id="use53"
       inkscape:spray-origin="#rect31"
       xlink:href="#rect31"
       x="0"
       y="0"
       width="100%"
       height="100%"
       transform="translate(-4.0231453,47.675627)" />
    <use
       id="use55"
       inkscape:spray-origin="#rect31"
       xlink:href="#rect31"
       x="0"
       y="0"
       width="100%"
       height="100%"
       transform="translate(0.01890974,63.525004)" />
    <use
       id="use57"
       inkscape:spray-origin="#rect31"
       xlink:href="#rect31"
       x="0"
       y="0"
       width="100%"
       height="100%"
       transform="translate(2.9789506,51.511079)" />
    <use
       id="use59"
       inkscape:spray-origin="#rect31"
       xlink:href="#rect31"
       x="0"
       y="0"
       width="100%"
       height="100%"
       transform="translate(-12.412645,67.841747)" />
    <use
       id="use61"
       inkscape:spray-origin="#rect31"
       xlink:href="#rect31"
       x="0"
       y="0"
       width="100%"
       height="100%"
       transform="translate(-19.644615,37.96637)" />
    <use
       id="use63"
       inkscape:spray-origin="#rect31"
       xlink:href="#rect31"
       x="0"
       y="0"
       width="100%"
       height="100%"
       transform="translate(-30.480178,70.039579)" />
    <use
       id="use65"
       inkscape:spray-origin="#rect31"
       xlink:href="#rect31"
       x="0"
       y="0"
       width="100%"
       height="100%"
       transform="translate(-24.529887,65.939604)" />
    <use
       id="use67"
       inkscape:spray-origin="#rect31"
       xlink:href="#rect31"
       x="0"
       y="0"
       width="100%"
       height="100%"
       transform="translate(-14.985936,45.992462)" />
    <use
       id="use69"
       inkscape:spray-origin="#rect31"
       xlink:href="#rect31"
       x="0"
       y="0"
       width="100%"
       height="100%"
       transform="translate(-27.356988,65.486619)" />
    <use
       id="use71"
       inkscape:spray-origin="#rect31"
       xlink:href="#rect31"
       x="0"
       y="0"
       width="100%"
       height="100%"
       transform="translate(-23.673757,60.542681)" />
    <use
       id="use73"
       inkscape:spray-origin="#rect31"
       xlink:href="#rect31"
       x="0"
       y="0"
       width="100%"
       height="100%"
       transform="translate(-29.272308,72.795952)" />
    <use
       id="use75"
       inkscape:spray-origin="#rect31"
       xlink:href="#rect31"
       x="0"
       y="0"
       width="100%"
       height="100%"
       transform="translate(-37.030878,58.04119)" />
    <use
       id="use77"
       inkscape:spray-origin="#rect31"
       xlink:href="#rect31"
       x="0"
       y="0"
       width="100%"
       height="100%"
       transform="translate(-13.093112,45.567328)" />
    <use
       id="use79"
       inkscape:spray-origin="#rect31"
       xlink:href="#rect31"
       x="0"
       y="0"
       width="100%"
       height="100%"
       transform="translate(-23.157714,76.165852)" />
    <use
       id="use81"
       inkscape:spray-origin="#rect31"
       xlink:href="#rect31"
       x="0"
       y="0"
       width="100%"
       height="100%"
       transform="translate(-31.767909,54.054193)" />
    <use
       id="use83"
       inkscape:spray-origin="#rect31"
       xlink:href="#rect31"
       x="0"
       y="0"
       width="100%"
       height="100%"
       transform="translate(-18.97957,62.850878)" />
    <use
       id="use85"
       inkscape:spray-origin="#rect31"
       xlink:href="#rect31"
       x="0"
       y="0"
       width="100%"
       height="100%"
       transform="translate(-9.7473176,49.406491)" />
    <use
       id="use87"
       inkscape:spray-origin="#rect31"
       xlink:href="#rect31"
       x="0"
       y="0"
       width="100%"
       height="100%"
       transform="translate(-11.08741,56.331891)" />
    <use
       id="use89"
       inkscape:spray-origin="#rect31"
       xlink:href="#rect31"
       x="0"
       y="0"
       width="100%"
       height="100%"
       transform="translate(-11.133628,57.584021)" />
    <use
       id="use91"
       inkscape:spray-origin="#rect31"
       xlink:href="#rect31"
       x="0"
       y="0"
       width="100%"
       height="100%"
       transform="translate(-22.982,44.914082)" />
    <path
       style="fill:#ffff00;stroke:#ff0000;stroke-width:0.52499998"
       id="path93"
       d="m 59.296071,273.04177 c 0.263114,0.31151 1.656302,2.20318 1.978552,2.226 0.132368,0.009 0.203138,-0.17078 0.30471,-0.25617 -2.062757,1.11016 -4.031921,2.41526 -6.188259,3.33047 -0.573647,0.24347 0.936442,-0.82553 1.361036,-1.28168 0.831448,-0.89325 1.618066,-1.82756 2.402909,-2.76203 3.568914,-4.24929 7.021686,-8.60183 10.479551,-12.94121 5.792793,-7.27625 11.713386,-14.45018 17.617882,-21.6358 0,0 6.573919,-2.78515 6.573919,-2.78515 v 0 c -6.28099,7.14489 -12.371678,14.46011 -18.298539,21.9009 -3.339268,4.21255 -6.657494,8.43823 -9.919151,12.71127 -0.668991,0.87643 -1.330895,1.75826 -1.99953,2.63497 -0.342899,0.44961 -0.561089,1.03559 -1.035048,1.34397 -2.324459,1.51235 -4.842642,2.70373 -7.263963,4.05559 -0.212022,-0.08 -0.44162,-0.12362 -0.636054,-0.24002 -0.721497,-0.43194 -1.299049,-1.72805 -2.017763,-2.23226 0,0 6.639748,-4.06885 6.639748,-4.06885 z"
       inkscape:connector-curvature="0" />
    <path
       style="fill:#ffff00;stroke:#ff0000;stroke-width:0.52499998"
       id="path95"
       d="m 51.921176,260.32935 c 1.113477,1.02435 2.123383,2.16032 3.168595,3.25465 1.067682,0.97324 1.752644,2.2553 2.517391,3.46049 0.812973,1.18891 1.455415,2.48034 2.259526,3.67635 0.527179,0.69859 0.871826,1.47125 1.239263,2.25627 0.264384,0.54284 0.491893,1.0926 0.644185,1.67681 0.03843,0.0845 0.02058,0.32892 0.128237,0.16267 0,0 -6.570743,4.29332 -6.570743,4.29332 v 0 c -0.207779,-0.20672 -0.436306,-0.45092 -0.456388,-0.75821 -0.08422,-0.54288 -0.276066,-1.04858 -0.515371,-1.54285 -0.35228,-0.75213 -0.667517,-1.50408 -1.152443,-2.18937 -0.746335,-1.22939 -1.388793,-2.52153 -2.212335,-3.70221 -0.74908,-1.15556 -1.451425,-2.35965 -2.430235,-3.3416 -1.019429,-1.07143 -1.999463,-2.21722 -3.20964,-3.07823 0,0 6.589957,-4.16809 6.589958,-4.16809 z"
       inkscape:connector-curvature="0" />
  </g>
</svg>
