<?xml version="1.0"?>
<svg xmlns="http://www.w3.org/2000/svg"
xmlns:xlink="http://www.w3.org/1999/xlink" xmlns:cml="http://www.xml-cml.org/schema" width="383.273" height="254.744" x="0" y="0" font-family="sans-serif" stroke="rgb(0,0,0)" stroke-width="1"  stroke-linecap="round">
<rect x="0%" y="0%" width="100%" height="100%" stroke-width="0" fill="rgb(255,255,255)"  />
<line x1="335.9" y1="202.2" x2="343.3" y2="173.8" stroke="rgb(0,0,0)"  stroke-width="1.0"/>
<line x1="343.3" y1="173.8" x2="313.2" y2="144.2" stroke="rgb(0,0,0)"  stroke-width="1.0"/>
<line x1="113.2" y1="103.4" x2="87.9" y2="118.0" stroke="rgb(0,0,0)"  stroke-width="1.0"/>
<line x1="65.3" y1="118.0" x2="51.3" y2="109.9" stroke="rgb(0,0,0)"  stroke-width="1.0"/>
<line x1="186.4" y1="61.1" x2="214.2" y2="52.1" stroke="rgb(0,0,0)"  stroke-width="1.0"/>
<line x1="234.2" y1="58.6" x2="251.4" y2="82.3" stroke="rgb(0,0,0)"  stroke-width="1.0"/>
<line x1="251.4" y1="82.3" x2="226.6" y2="116.5" stroke="rgb(0,0,0)"  stroke-width="1.0"/>
<line x1="242.1" y1="82.9" x2="224.3" y2="107.4" stroke="rgb(0,0,0)"  stroke-width="1.0"/>
<line x1="226.6" y1="116.5" x2="186.4" y2="103.4" stroke="rgb(0,0,0)"  stroke-width="1.0"/>
<line x1="186.4" y1="103.4" x2="186.4" y2="61.1" stroke="rgb(0,0,0)"  stroke-width="1.0"/>
<line x1="193.6" y1="97.4" x2="193.6" y2="67.1" stroke="rgb(0,0,0)"  stroke-width="1.0"/>
<line x1="313.2" y1="144.2" x2="281.3" y2="153.0" stroke="rgb(0,0,0)"  stroke-width="1.0"/>
<line x1="281.3" y1="153.0" x2="257.8" y2="129.8" stroke="rgb(0,0,0)"  stroke-width="1.0"/>
<line x1="257.8" y1="129.8" x2="263.8" y2="96.4" stroke="rgb(0,0,0)"  stroke-width="1.0"/>
<line x1="263.8" y1="96.4" x2="293.7" y2="80.4" stroke="rgb(0,0,0)"  stroke-width="1.0"/>
<line x1="293.7" y1="80.4" x2="321.5" y2="112.2" stroke="rgb(0,0,0)"  stroke-width="1.0"/>
<line x1="321.5" y1="112.2" x2="313.2" y2="144.2" stroke="rgb(0,0,0)"  stroke-width="1.0"/>
<line x1="300.9" y1="154.4" x2="280.1" y2="155.3" stroke="rgb(0,0,0)"  stroke-width="1.0"/>
<line x1="280.1" y1="155.3" x2="257.8" y2="129.8" stroke="rgb(0,0,0)"  stroke-width="1.0"/>
<line x1="321.5" y1="112.2" x2="316.3" y2="141.0" stroke="rgb(0,0,0)"  stroke-width="1.0"/>
<line x1="113.2" y1="61.1" x2="113.2" y2="103.4" stroke="rgb(0,0,0)"  stroke-width="1.0"/>
<line x1="113.2" y1="103.4" x2="149.8" y2="124.5" stroke="rgb(0,0,0)"  stroke-width="1.0"/>
<line x1="122.0" y1="100.2" x2="148.2" y2="115.3" stroke="rgb(0,0,0)"  stroke-width="1.0"/>
<line x1="149.8" y1="124.5" x2="186.4" y2="103.4" stroke="rgb(0,0,0)"  stroke-width="1.0"/>
<line x1="186.4" y1="61.1" x2="149.8" y2="40.0" stroke="rgb(0,0,0)"  stroke-width="1.0"/>
<line x1="149.8" y1="40.0" x2="113.2" y2="61.1" stroke="rgb(0,0,0)"  stroke-width="1.0"/>
<line x1="148.2" y1="49.2" x2="122.0" y2="64.4" stroke="rgb(0,0,0)"  stroke-width="1.0"/>
<line x1="302.5" y1="159.9" x2="276.7" y2="173.8" stroke="rgb(0,0,0)"  stroke-width="1.0"/>
<line x1="276.7" y1="173.8" x2="237.8" y2="157.2" stroke="rgb(0,0,0)"  stroke-width="1.0"/>
<line x1="237.8" y1="157.2" x2="226.6" y2="116.5" stroke="rgb(0,0,0)"  stroke-width="1.0"/>
<line x1="251.4" y1="82.3" x2="293.7" y2="80.4" stroke="rgb(0,0,0)"  stroke-width="1.0"/>
<text x="306.639280" y="222.744332" fill="rgb(102,102,102)"  stroke="rgb(102,102,102)" stroke-width="1" font-size="16" >H</text>
<text x="318.639280" y="226.424332" fill="rgb(102,102,102)"  stroke="rgb(102,102,102)" stroke-width="1" font-size="13" >3</text>
<text x="325.139280" y="222.744332" fill="rgb(102,102,102)"  stroke="rgb(102,102,102)" stroke-width="1" font-size="16" >C</text>
<text x="307.930909" y="161.782303" fill="rgb(12,12,255)"  stroke="rgb(12,12,255)" stroke-width="1" font-size="16" >N</text>
<text x="220.605291" y="56.071838" fill="rgb(12,12,255)"  stroke="rgb(12,12,255)" stroke-width="1" font-size="16" >N</text>
<text x="220.605291" y="40.071838" fill="rgb(12,12,255)"  stroke="rgb(12,12,255)" stroke-width="1" font-size="16" >H</text>
<text x="70.602295" y="132.529380" fill="rgb(255,12,12)"  stroke="rgb(255,12,12)" stroke-width="1" font-size="16" >O</text>
<text x="14.000000" y="111.397035" fill="rgb(102,102,102)"  stroke="rgb(102,102,102)" stroke-width="1" font-size="16" >H</text>
<text x="26.000000" y="115.077035" fill="rgb(102,102,102)"  stroke="rgb(102,102,102)" stroke-width="1" font-size="13" >3</text>
<text x="32.500000" y="111.397035" fill="rgb(102,102,102)"  stroke="rgb(102,102,102)" stroke-width="1" font-size="16" >C</text>
<text font-size="18.000000" fill ="black" font-family="sans-serif"
x="10.000000" y="20.000000" ></text>
<title> - OBDepict</title>
</svg>
