<?xml version="1.0"?>
<svg xmlns="http://www.w3.org/2000/svg"
xmlns:xlink="http://www.w3.org/1999/xlink" xmlns:cml="http://www.xml-cml.org/schema" width="252.612" height="214.965" x="0" y="0" font-family="sans-serif" stroke="rgb(0,0,0)" stroke-width="1"  stroke-linecap="round">
<rect x="0%" y="0%" width="100%" height="100%" stroke-width="0" fill="rgb(255,255,255)"  />
<line x1="113.8" y1="45.0" x2="126.7" y2="50.3" stroke="rgb(0,0,0)"  stroke-width="1.0"/>
<line x1="140.4" y1="68.2" x2="143.9" y2="95.0" stroke="rgb(0,0,0)"  stroke-width="1.0"/>
<line x1="177.9" y1="79.3" x2="181.4" y2="52.5" stroke="rgb(0,0,0)"  stroke-width="1.0"/>
<line x1="183.9" y1="80.0" x2="187.4" y2="53.3" stroke="rgb(0,0,0)"  stroke-width="1.0"/>
<line x1="143.9" y1="95.0" x2="109.3" y2="115.0" stroke="rgb(0,0,0)"  stroke-width="1.0"/>
<line x1="109.3" y1="155.0" x2="132.7" y2="168.5" stroke="rgb(0,0,0)"  stroke-width="1.0"/>
<line x1="143.9" y1="95.0" x2="138.7" y2="134.6" stroke="rgb(0,0,0)"  stroke-width="1.0"/>
<line x1="138.7" y1="134.6" x2="170.4" y2="159.0" stroke="rgb(0,0,0)"  stroke-width="1.0"/>
<line x1="170.4" y1="159.0" x2="207.4" y2="143.7" stroke="rgb(0,0,0)"  stroke-width="1.0"/>
<line x1="207.4" y1="143.7" x2="212.6" y2="104.0" stroke="rgb(0,0,0)"  stroke-width="1.0"/>
<line x1="212.6" y1="104.0" x2="180.9" y2="79.7" stroke="rgb(0,0,0)"  stroke-width="1.0"/>
<line x1="180.9" y1="79.7" x2="143.9" y2="95.0" stroke="rgb(0,0,0)"  stroke-width="1.0"/>
<line x1="109.3" y1="115.0" x2="74.6" y2="95.0" stroke="rgb(0,0,0)"  stroke-width="1.0"/>
<line x1="100.5" y1="118.2" x2="76.2" y2="104.2" stroke="rgb(0,0,0)"  stroke-width="1.0"/>
<line x1="74.6" y1="95.0" x2="40.0" y2="115.0" stroke="rgb(0,0,0)"  stroke-width="1.0"/>
<line x1="40.0" y1="115.0" x2="40.0" y2="155.0" stroke="rgb(0,0,0)"  stroke-width="1.0"/>
<line x1="47.2" y1="121.0" x2="47.2" y2="149.0" stroke="rgb(0,0,0)"  stroke-width="1.0"/>
<line x1="40.0" y1="155.0" x2="74.6" y2="175.0" stroke="rgb(0,0,0)"  stroke-width="1.0"/>
<line x1="74.6" y1="175.0" x2="109.3" y2="155.0" stroke="rgb(0,0,0)"  stroke-width="1.0"/>
<line x1="76.2" y1="165.7" x2="100.5" y2="151.7" stroke="rgb(0,0,0)"  stroke-width="1.0"/>
<line x1="109.3" y1="155.0" x2="109.3" y2="115.0" stroke="rgb(0,0,0)"  stroke-width="1.0"/>
<text x="75.746819" y="48.000000" fill="rgb(102,102,102)"  stroke="rgb(102,102,102)" stroke-width="1" font-size="16" >H</text>
<text x="87.746819" y="51.680000" fill="rgb(102,102,102)"  stroke="rgb(102,102,102)" stroke-width="1" font-size="13" >3</text>
<text x="94.246819" y="48.000000" fill="rgb(102,102,102)"  stroke="rgb(102,102,102)" stroke-width="1" font-size="16" >C</text>
<text x="132.702001" y="63.307337" fill="rgb(12,12,255)"  stroke="rgb(12,12,255)" stroke-width="1" font-size="16" >NH</text>
<text x="180.099277" y="48.000000" fill="rgb(255,12,12)"  stroke="rgb(255,12,12)" stroke-width="1" font-size="16" >O</text>
<text x="137.923048" y="182.965132" fill="rgb(30,239,30)"  stroke="rgb(30,239,30)" stroke-width="1" font-size="16" >Cl</text>
<text font-size="18.000000" fill ="black" font-family="sans-serif"
x="10.000000" y="20.000000" ></text>
<title> - OBDepict</title>
</svg>
