<?xml version="1.0"?>
<svg xmlns="http://www.w3.org/2000/svg"
xmlns:xlink="http://www.w3.org/1999/xlink" xmlns:cml="http://www.xml-cml.org/schema" width="449.32" height="249.908" x="0" y="0" font-family="sans-serif" stroke="rgb(0,0,0)" stroke-width="1"  stroke-linecap="round">
<rect x="0%" y="0%" width="100%" height="100%" stroke-width="0" fill="rgb(255,255,255)"  />
<line x1="108.0" y1="51.3" x2="122.0" y2="75.5" stroke="rgb(0,0,0)"  stroke-width="1.0"/>
<line x1="122.0" y1="75.5" x2="108.0" y2="99.8" stroke="rgb(0,0,0)"  stroke-width="1.0"/>
<line x1="88.5" y1="111.1" x2="60.5" y2="111.1" stroke="rgb(0,0,0)"  stroke-width="1.0"/>
<line x1="60.5" y1="111.1" x2="46.5" y2="86.8" stroke="rgb(0,0,0)"  stroke-width="1.0"/>
<line x1="108.0" y1="122.3" x2="122.0" y2="146.6" stroke="rgb(0,0,0)"  stroke-width="1.0"/>
<line x1="124.6" y1="148.1" x2="110.6" y2="172.3" stroke="rgb(0,0,0)"  stroke-width="1.0"/>
<line x1="119.4" y1="145.1" x2="105.4" y2="169.3" stroke="rgb(0,0,0)"  stroke-width="1.0"/>
<line x1="122.0" y1="146.6" x2="163.1" y2="146.6" stroke="rgb(0,0,0)"  stroke-width="1.0"/>
<line x1="161.0" y1="151.7" x2="159.6" y2="150.9" stroke="rgb(0,0,0)"  stroke-width="1.0"/>
<line x1="159.4" y1="155.9" x2="156.9" y2="154.4" stroke="rgb(0,0,0)"  stroke-width="1.0"/>
<line x1="157.7" y1="160.0" x2="154.1" y2="157.9" stroke="rgb(0,0,0)"  stroke-width="1.0"/>
<line x1="156.1" y1="164.1" x2="151.4" y2="161.4" stroke="rgb(0,0,0)"  stroke-width="1.0"/>
<line x1="154.4" y1="168.3" x2="148.6" y2="164.9" stroke="rgb(0,0,0)"  stroke-width="1.0"/>
<line x1="152.8" y1="172.4" x2="145.9" y2="168.4" stroke="rgb(0,0,0)"  stroke-width="1.0"/>
<line x1="198.6" y1="72.0" x2="198.6" y2="57.0" stroke="rgb(0,0,0)"  stroke-width="1.0"/>
<polygon points="234.118642 105.556436 230.118642 78.071631 238.118642 78.071631 " stroke-width="1.000000" fill="rgb(0,0,0)"  stroke="rgb(0,0,0)" />
<line x1="381.3" y1="126.1" x2="396.3" y2="126.1" stroke="rgb(0,0,0)"  stroke-width="1.0"/>
<line x1="360.7" y1="136.6" x2="344.2" y2="159.3" stroke="rgb(0,0,0)"  stroke-width="1.0"/>
<line x1="344.2" y1="159.3" x2="305.2" y2="146.6" stroke="rgb(0,0,0)"  stroke-width="1.0"/>
<line x1="305.2" y1="146.6" x2="305.2" y2="105.6" stroke="rgb(0,0,0)"  stroke-width="1.0"/>
<line x1="305.2" y1="105.6" x2="344.2" y2="92.9" stroke="rgb(0,0,0)"  stroke-width="1.0"/>
<line x1="313.1" y1="110.5" x2="340.7" y2="101.6" stroke="rgb(0,0,0)"  stroke-width="1.0"/>
<line x1="344.2" y1="92.9" x2="360.7" y2="115.6" stroke="rgb(0,0,0)"  stroke-width="1.0"/>
<line x1="163.1" y1="146.6" x2="163.1" y2="105.6" stroke="rgb(0,0,0)"  stroke-width="1.0"/>
<line x1="163.1" y1="105.6" x2="187.3" y2="91.5" stroke="rgb(0,0,0)"  stroke-width="1.0"/>
<line x1="209.9" y1="91.5" x2="234.1" y2="105.6" stroke="rgb(0,0,0)"  stroke-width="1.0"/>
<line x1="234.1" y1="105.6" x2="234.1" y2="146.6" stroke="rgb(0,0,0)"  stroke-width="1.0"/>
<line x1="234.1" y1="146.6" x2="198.6" y2="167.1" stroke="rgb(0,0,0)"  stroke-width="1.0"/>
<line x1="225.3" y1="143.3" x2="200.2" y2="157.9" stroke="rgb(0,0,0)"  stroke-width="1.0"/>
<line x1="198.6" y1="167.1" x2="163.1" y2="146.6" stroke="rgb(0,0,0)"  stroke-width="1.0"/>
<line x1="269.6" y1="85.0" x2="305.2" y2="105.6" stroke="rgb(0,0,0)"  stroke-width="1.0"/>
<line x1="305.2" y1="146.6" x2="269.6" y2="167.1" stroke="rgb(0,0,0)"  stroke-width="1.0"/>
<line x1="296.4" y1="143.3" x2="271.2" y2="157.9" stroke="rgb(0,0,0)"  stroke-width="1.0"/>
<line x1="269.6" y1="167.1" x2="234.1" y2="146.6" stroke="rgb(0,0,0)"  stroke-width="1.0"/>
<line x1="234.1" y1="105.6" x2="269.6" y2="85.0" stroke="rgb(0,0,0)"  stroke-width="1.0"/>
<line x1="311.8" y1="209.9" x2="280.4" y2="198.7" stroke="rgb(0,0,0)"  stroke-width="1.0"/>
<line x1="308.6" y1="201.1" x2="288.5" y2="193.9" stroke="rgb(0,0,0)"  stroke-width="1.0"/>
<line x1="280.4" y1="198.7" x2="269.6" y2="167.1" stroke="rgb(0,0,0)"  stroke-width="1.0"/>
<line x1="344.2" y1="159.3" x2="340.2" y2="192.4" stroke="rgb(0,0,0)"  stroke-width="1.0"/>
<line x1="336.3" y1="164.4" x2="333.8" y2="185.6" stroke="rgb(0,0,0)"  stroke-width="1.0"/>
<line x1="340.2" y1="192.4" x2="311.8" y2="209.9" stroke="rgb(0,0,0)"  stroke-width="1.0"/>
<text x="75.533144" y="48.000000" fill="rgb(102,102,102)"  stroke="rgb(102,102,102)" stroke-width="1" font-size="16" >H</text>
<text x="87.533144" y="51.680000" fill="rgb(102,102,102)"  stroke="rgb(102,102,102)" stroke-width="1" font-size="13" >3</text>
<text x="94.033144" y="48.000000" fill="rgb(102,102,102)"  stroke="rgb(102,102,102)" stroke-width="1" font-size="16" >C</text>
<text x="95.533144" y="119.052354" fill="rgb(12,12,255)"  stroke="rgb(12,12,255)" stroke-width="1" font-size="16" >N</text>
<text x="14.000000" y="83.526177" fill="rgb(102,102,102)"  stroke="rgb(102,102,102)" stroke-width="1" font-size="16" >H</text>
<text x="26.000000" y="87.206177" fill="rgb(102,102,102)"  stroke="rgb(102,102,102)" stroke-width="1" font-size="13" >3</text>
<text x="32.500000" y="83.526177" fill="rgb(102,102,102)"  stroke="rgb(102,102,102)" stroke-width="1" font-size="16" >C</text>
<text x="95.533144" y="190.104709" fill="rgb(255,12,12)"  stroke="rgb(255,12,12)" stroke-width="1" font-size="16" >O</text>
<text x="136.555240" y="190.104709" fill="rgb(191,191,191)"  stroke="rgb(191,191,191)" stroke-width="1" font-size="16" >H</text>
<text x="192.592465" y="93.045388" fill="rgb(12,12,255)"  stroke="rgb(12,12,255)" stroke-width="1" font-size="16" >N</text>
<text x="194.592465" y="52.023292" fill="rgb(102,102,102)"  stroke="rgb(102,102,102)" stroke-width="1" font-size="16" >CH</text>
<text x="218.592465" y="55.703292" fill="rgb(102,102,102)"  stroke="rgb(102,102,102)" stroke-width="1" font-size="13" >3</text>
<text x="228.118642" y="72.534340" fill="rgb(191,191,191)"  stroke="rgb(191,191,191)" stroke-width="1" font-size="16" >H</text>
<text x="362.297511" y="134.067483" fill="rgb(12,12,255)"  stroke="rgb(12,12,255)" stroke-width="1" font-size="16" >N</text>
<text x="403.319606" y="134.067483" fill="rgb(191,191,191)"  stroke="rgb(191,191,191)" stroke-width="1" font-size="16" >H</text>
<text font-size="18.000000" fill ="black" font-family="sans-serif"
x="10.000000" y="20.000000" ></text>
<title> - OBDepict</title>
</svg>
