<?xml version="1.0"?>
<svg xmlns="http://www.w3.org/2000/svg"
xmlns:xlink="http://www.w3.org/1999/xlink" xmlns:cml="http://www.xml-cml.org/schema" width="369.4" height="180" x="0" y="0" font-family="sans-serif" stroke="rgb(0,0,0)" stroke-width="1"  stroke-linecap="round">
<rect x="0%" y="0%" width="100%" height="100%" stroke-width="0" fill="rgb(255,255,255)"  />
<line x1="260.1" y1="107.0" x2="260.1" y2="80.0" stroke="rgb(0,0,0)"  stroke-width="1.0"/>
<line x1="260.1" y1="80.0" x2="225.5" y2="60.0" stroke="rgb(0,0,0)"  stroke-width="1.0"/>
<line x1="225.5" y1="60.0" x2="190.8" y2="80.0" stroke="rgb(0,0,0)"  stroke-width="1.0"/>
<line x1="260.1" y1="80.0" x2="283.5" y2="66.5" stroke="rgb(0,0,0)"  stroke-width="1.0"/>
<line x1="306.0" y1="66.5" x2="318.1" y2="73.5" stroke="rgb(0,0,0)"  stroke-width="1.0"/>
<line x1="75.9" y1="121.8" x2="60.0" y2="100.0" stroke="rgb(0,0,0)"  stroke-width="1.0"/>
<line x1="60.0" y1="100.0" x2="75.9" y2="78.2" stroke="rgb(0,0,0)"  stroke-width="1.0"/>
<line x1="95.9" y1="71.7" x2="121.6" y2="80.0" stroke="rgb(0,0,0)"  stroke-width="1.0"/>
<line x1="121.6" y1="80.0" x2="121.6" y2="120.0" stroke="rgb(0,0,0)"  stroke-width="1.0"/>
<line x1="114.4" y1="86.0" x2="114.4" y2="114.0" stroke="rgb(0,0,0)"  stroke-width="1.0"/>
<line x1="121.6" y1="120.0" x2="95.9" y2="128.3" stroke="rgb(0,0,0)"  stroke-width="1.0"/>
<line x1="190.8" y1="80.0" x2="156.2" y2="60.0" stroke="rgb(0,0,0)"  stroke-width="1.0"/>
<line x1="182.0" y1="83.2" x2="157.8" y2="69.2" stroke="rgb(0,0,0)"  stroke-width="1.0"/>
<line x1="156.2" y1="60.0" x2="121.6" y2="80.0" stroke="rgb(0,0,0)"  stroke-width="1.0"/>
<line x1="121.6" y1="120.0" x2="156.2" y2="140.0" stroke="rgb(0,0,0)"  stroke-width="1.0"/>
<line x1="156.2" y1="140.0" x2="190.8" y2="120.0" stroke="rgb(0,0,0)"  stroke-width="1.0"/>
<line x1="157.8" y1="130.8" x2="182.0" y2="116.8" stroke="rgb(0,0,0)"  stroke-width="1.0"/>
<line x1="190.8" y1="120.0" x2="190.8" y2="80.0" stroke="rgb(0,0,0)"  stroke-width="1.0"/>
<text x="256.117735" y="128.000000" fill="rgb(102,102,102)"  stroke="rgb(102,102,102)" stroke-width="1" font-size="16" >CH</text>
<text x="280.117735" y="131.680000" fill="rgb(102,102,102)"  stroke="rgb(102,102,102)" stroke-width="1" font-size="13" >3</text>
<text x="77.511410" y="140.360680" fill="rgb(255,12,12)"  stroke="rgb(255,12,12)" stroke-width="1" font-size="16" >O</text>
<text x="77.511410" y="75.639320" fill="rgb(255,12,12)"  stroke="rgb(255,12,12)" stroke-width="1" font-size="16" >O</text>
<text x="288.758752" y="68.000000" fill="rgb(12,12,255)"  stroke="rgb(12,12,255)" stroke-width="1" font-size="16" >N</text>
<text x="288.758752" y="52.000000" fill="rgb(12,12,255)"  stroke="rgb(12,12,255)" stroke-width="1" font-size="16" >H</text>
<text x="325.399768" y="88.000000" fill="rgb(102,102,102)"  stroke="rgb(102,102,102)" stroke-width="1" font-size="16" >CH</text>
<text x="349.399768" y="91.680000" fill="rgb(102,102,102)"  stroke="rgb(102,102,102)" stroke-width="1" font-size="13" >3</text>
<text x="34.000000" y="48.000000" fill="rgb(30,239,30)"  stroke="rgb(30,239,30)" stroke-width="1" font-size="16" >ClH</text>
<text font-size="18.000000" fill ="black" font-family="sans-serif"
x="10.000000" y="20.000000" ></text>
<title> - OBDepict</title>
</svg>
