<?xml version="1.0"?>
<svg xmlns="http://www.w3.org/2000/svg"
xmlns:xlink="http://www.w3.org/1999/xlink" xmlns:cml="http://www.xml-cml.org/schema" width="296.386" height="283.307" x="0" y="0" font-family="sans-serif" stroke="rgb(0,0,0)" stroke-width="1"  stroke-linecap="round">
<rect x="0%" y="0%" width="100%" height="100%" stroke-width="0" fill="rgb(255,255,255)"  />
<line x1="238.0" y1="156.9" x2="233.6" y2="143.6" stroke="rgb(0,0,0)"  stroke-width="1.0"/>
<line x1="238.3" y1="121.6" x2="247.7" y2="111.2" stroke="rgb(0,0,0)"  stroke-width="1.0"/>
<line x1="216.9" y1="128.5" x2="190.5" y2="122.9" stroke="rgb(0,0,0)"  stroke-width="1.0"/>
<line x1="190.5" y1="122.9" x2="178.1" y2="84.9" stroke="rgb(0,0,0)"  stroke-width="1.0"/>
<line x1="178.1" y1="84.9" x2="139.0" y2="76.5" stroke="rgb(0,0,0)"  stroke-width="1.0"/>
<line x1="109.3" y1="143.3" x2="132.7" y2="156.8" stroke="rgb(0,0,0)"  stroke-width="1.0"/>
<line x1="143.9" y1="176.3" x2="143.9" y2="190.3" stroke="rgb(0,0,0)"  stroke-width="1.0"/>
<line x1="156.9" y1="200.3" x2="170.9" y2="200.3" stroke="rgb(0,0,0)"  stroke-width="1.0"/>
<line x1="156.9" y1="206.3" x2="170.9" y2="206.3" stroke="rgb(0,0,0)"  stroke-width="1.0"/>
<line x1="143.9" y1="216.3" x2="143.9" y2="230.3" stroke="rgb(0,0,0)"  stroke-width="1.0"/>
<line x1="130.9" y1="203.3" x2="116.9" y2="203.3" stroke="rgb(0,0,0)"  stroke-width="1.0"/>
<line x1="139.0" y1="76.5" x2="122.7" y2="40.0" stroke="rgb(0,0,0)"  stroke-width="1.0"/>
<line x1="130.0" y1="74.0" x2="118.6" y2="48.4" stroke="rgb(0,0,0)"  stroke-width="1.0"/>
<line x1="122.7" y1="40.0" x2="95.9" y2="42.8" stroke="rgb(0,0,0)"  stroke-width="1.0"/>
<line x1="80.3" y1="56.9" x2="74.6" y2="83.3" stroke="rgb(0,0,0)"  stroke-width="1.0"/>
<line x1="74.6" y1="83.3" x2="109.3" y2="103.3" stroke="rgb(0,0,0)"  stroke-width="1.0"/>
<line x1="83.4" y1="80.1" x2="107.7" y2="94.1" stroke="rgb(0,0,0)"  stroke-width="1.0"/>
<line x1="109.3" y1="103.3" x2="139.0" y2="76.5" stroke="rgb(0,0,0)"  stroke-width="1.0"/>
<line x1="40.0" y1="143.3" x2="74.6" y2="163.3" stroke="rgb(0,0,0)"  stroke-width="1.0"/>
<line x1="74.6" y1="163.3" x2="109.3" y2="143.3" stroke="rgb(0,0,0)"  stroke-width="1.0"/>
<line x1="76.2" y1="154.1" x2="100.5" y2="140.1" stroke="rgb(0,0,0)"  stroke-width="1.0"/>
<line x1="109.3" y1="143.3" x2="109.3" y2="103.3" stroke="rgb(0,0,0)"  stroke-width="1.0"/>
<line x1="74.6" y1="83.3" x2="40.0" y2="103.3" stroke="rgb(0,0,0)"  stroke-width="1.0"/>
<line x1="40.0" y1="103.3" x2="40.0" y2="143.3" stroke="rgb(0,0,0)"  stroke-width="1.0"/>
<line x1="47.2" y1="109.3" x2="47.2" y2="137.3" stroke="rgb(0,0,0)"  stroke-width="1.0"/>
<text x="237.980993" y="177.259275" fill="rgb(102,102,102)"  stroke="rgb(102,102,102)" stroke-width="1" font-size="16" >CH</text>
<text x="261.980993" y="180.939275" fill="rgb(102,102,102)"  stroke="rgb(102,102,102)" stroke-width="1" font-size="13" >3</text>
<text x="223.620313" y="139.217014" fill="rgb(12,12,255)"  stroke="rgb(12,12,255)" stroke-width="1" font-size="16" >N</text>
<text x="252.385537" y="109.491221" fill="rgb(102,102,102)"  stroke="rgb(102,102,102)" stroke-width="1" font-size="16" >CH</text>
<text x="276.385537" y="113.171221" fill="rgb(102,102,102)"  stroke="rgb(102,102,102)" stroke-width="1" font-size="13" >3</text>
<text x="76.957484" y="52.181139" fill="rgb(12,12,255)"  stroke="rgb(12,12,255)" stroke-width="1" font-size="16" >N</text>
<text x="76.957484" y="36.181139" fill="rgb(12,12,255)"  stroke="rgb(12,12,255)" stroke-width="1" font-size="16" >H</text>
<text x="137.923048" y="171.307043" fill="rgb(255,12,12)"  stroke="rgb(255,12,12)" stroke-width="1" font-size="16" >O</text>
<text x="137.923048" y="211.307043" fill="rgb(255,127,0)"  stroke="rgb(255,127,0)" stroke-width="1" font-size="16" >P</text>
<text x="177.923048" y="211.307043" fill="rgb(255,12,12)"  stroke="rgb(255,12,12)" stroke-width="1" font-size="16" >O</text>
<text x="137.923048" y="251.307043" fill="rgb(255,12,12)"  stroke="rgb(255,12,12)" stroke-width="1" font-size="16" >OH</text>
<text x="85.923048" y="211.307043" fill="rgb(255,12,12)"  stroke="rgb(255,12,12)" stroke-width="1" font-size="16" >HO</text>
<text font-size="18.000000" fill ="black" font-family="sans-serif"
x="10.000000" y="20.000000" ></text>
<title> - OBDepict</title>
</svg>
