<?xml version="1.0"?>
<svg xmlns="http://www.w3.org/2000/svg"
xmlns:xlink="http://www.w3.org/1999/xlink" xmlns:cml="http://www.xml-cml.org/schema" width="397.128" height="274.641" x="0" y="0" font-family="sans-serif" stroke="rgb(0,0,0)" stroke-width="1"  stroke-linecap="round">
<rect x="0%" y="0%" width="100%" height="100%" stroke-width="0" fill="rgb(255,255,255)"  />
<line x1="357.1" y1="173.0" x2="357.1" y2="200.0" stroke="rgb(0,0,0)"  stroke-width="1.0"/>
<line x1="357.1" y1="200.0" x2="322.5" y2="220.0" stroke="rgb(0,0,0)"  stroke-width="1.0"/>
<line x1="322.5" y1="220.0" x2="287.8" y2="200.0" stroke="rgb(0,0,0)"  stroke-width="1.0"/>
<line x1="287.8" y1="200.0" x2="253.2" y2="220.0" stroke="rgb(0,0,0)"  stroke-width="1.0"/>
<line x1="253.2" y1="220.0" x2="218.6" y2="200.0" stroke="rgb(0,0,0)"  stroke-width="1.0"/>
<line x1="80.0" y1="200.0" x2="53.0" y2="200.0" stroke="rgb(0,0,0)"  stroke-width="1.0"/>
<line x1="80.0" y1="200.0" x2="66.5" y2="223.4" stroke="rgb(0,0,0)"  stroke-width="1.0"/>
<line x1="80.0" y1="80.0" x2="80.0" y2="53.0" stroke="rgb(0,0,0)"  stroke-width="1.0"/>
<line x1="183.9" y1="140.0" x2="183.9" y2="113.0" stroke="rgb(0,0,0)"  stroke-width="1.0"/>
<line x1="218.6" y1="200.0" x2="183.9" y2="220.0" stroke="rgb(0,0,0)"  stroke-width="1.0"/>
<line x1="209.8" y1="196.8" x2="185.5" y2="210.8" stroke="rgb(0,0,0)"  stroke-width="1.0"/>
<line x1="183.9" y1="220.0" x2="149.3" y2="200.0" stroke="rgb(0,0,0)"  stroke-width="1.0"/>
<line x1="149.3" y1="200.0" x2="149.3" y2="160.0" stroke="rgb(0,0,0)"  stroke-width="1.0"/>
<line x1="156.5" y1="194.0" x2="156.5" y2="166.0" stroke="rgb(0,0,0)"  stroke-width="1.0"/>
<line x1="149.3" y1="160.0" x2="183.9" y2="140.0" stroke="rgb(0,0,0)"  stroke-width="1.0"/>
<line x1="183.9" y1="140.0" x2="218.6" y2="160.0" stroke="rgb(0,0,0)"  stroke-width="1.0"/>
<line x1="185.5" y1="149.2" x2="209.8" y2="163.2" stroke="rgb(0,0,0)"  stroke-width="1.0"/>
<line x1="218.6" y1="160.0" x2="218.6" y2="200.0" stroke="rgb(0,0,0)"  stroke-width="1.0"/>
<line x1="114.6" y1="140.0" x2="80.0" y2="160.0" stroke="rgb(0,0,0)"  stroke-width="1.0"/>
<line x1="80.0" y1="160.0" x2="80.0" y2="200.0" stroke="rgb(0,0,0)"  stroke-width="1.0"/>
<line x1="80.0" y1="200.0" x2="103.4" y2="213.5" stroke="rgb(0,0,0)"  stroke-width="1.0"/>
<line x1="125.9" y1="213.5" x2="149.3" y2="200.0" stroke="rgb(0,0,0)"  stroke-width="1.0"/>
<line x1="149.3" y1="160.0" x2="114.6" y2="140.0" stroke="rgb(0,0,0)"  stroke-width="1.0"/>
<line x1="45.4" y1="100.0" x2="45.4" y2="140.0" stroke="rgb(0,0,0)"  stroke-width="1.0"/>
<line x1="45.4" y1="140.0" x2="80.0" y2="160.0" stroke="rgb(0,0,0)"  stroke-width="1.0"/>
<line x1="114.6" y1="140.0" x2="114.6" y2="100.0" stroke="rgb(0,0,0)"  stroke-width="1.0"/>
<line x1="114.6" y1="100.0" x2="80.0" y2="80.0" stroke="rgb(0,0,0)"  stroke-width="1.0"/>
<line x1="105.8" y1="103.2" x2="81.6" y2="89.2" stroke="rgb(0,0,0)"  stroke-width="1.0"/>
<line x1="80.0" y1="80.0" x2="45.4" y2="100.0" stroke="rgb(0,0,0)"  stroke-width="1.0"/>
<text x="353.128129" y="168.000000" fill="rgb(102,102,102)"  stroke="rgb(102,102,102)" stroke-width="1" font-size="16" >CH</text>
<text x="377.128129" y="171.680000" fill="rgb(102,102,102)"  stroke="rgb(102,102,102)" stroke-width="1" font-size="13" >3</text>
<text x="108.641016" y="228.000000" fill="rgb(255,12,12)"  stroke="rgb(255,12,12)" stroke-width="1" font-size="16" >O</text>
<text x="14.000000" y="208.000000" fill="rgb(102,102,102)"  stroke="rgb(102,102,102)" stroke-width="1" font-size="16" >H</text>
<text x="26.000000" y="211.680000" fill="rgb(102,102,102)"  stroke="rgb(102,102,102)" stroke-width="1" font-size="13" >3</text>
<text x="32.500000" y="208.000000" fill="rgb(102,102,102)"  stroke="rgb(102,102,102)" stroke-width="1" font-size="16" >C</text>
<text x="34.000000" y="242.641016" fill="rgb(102,102,102)"  stroke="rgb(102,102,102)" stroke-width="1" font-size="16" >H</text>
<text x="46.000000" y="246.321016" fill="rgb(102,102,102)"  stroke="rgb(102,102,102)" stroke-width="1" font-size="13" >3</text>
<text x="52.500000" y="242.641016" fill="rgb(102,102,102)"  stroke="rgb(102,102,102)" stroke-width="1" font-size="16" >C</text>
<text x="76.000000" y="48.000000" fill="rgb(102,102,102)"  stroke="rgb(102,102,102)" stroke-width="1" font-size="16" >CH</text>
<text x="100.000000" y="51.680000" fill="rgb(102,102,102)"  stroke="rgb(102,102,102)" stroke-width="1" font-size="13" >3</text>
<text x="177.923048" y="108.000000" fill="rgb(255,12,12)"  stroke="rgb(255,12,12)" stroke-width="1" font-size="16" >OH</text>
<text font-size="18.000000" fill ="black" font-family="sans-serif"
x="10.000000" y="20.000000" ></text>
<title> - OBDepict</title>
</svg>
